<mxfile host="app.diagrams.net" modified="2023-10-05T16:32:14.102Z" agent="Mozilla/5.0 (Windows NT 10.0; Win64; x64) AppleWebKit/537.36 (KHTML, like Gecko) Chrome/117.0.0.0 Safari/537.36" version="22.0.2" etag="M6WXo78m4Hk5rDVieV-n" type="github">
  <diagram name="PÃ¡gina-1" id="ctzn2W-mY7dd-EB08RmM">
    <mxGraphModel>
      <root>
        <mxCell id="0" />
        <mxCell id="1" parent="0" />
      </root>
    </mxGraphModel>
  </diagram>
</mxfile>
